<svg xmlns="http://www.w3.org/2000/svg" viewBox="0 0 600 450">
  <!-- Background -->
  <rect width="600" height="450" fill="white"/>

  <!-- Title -->
  <text x="300" y="25" font-family="Arial, sans-serif" font-size="20" font-weight="bold" text-anchor="middle" fill="#333">Parallel Resonantie (LC Tank)</text>

  <!-- Circuit -->
  <g transform="translate(100, 120)">
    <!-- AC Source -->
    <circle cx="30" cy="70" r="25" fill="none" stroke="#e74c3c" stroke-width="2.5"/>
    <text x="30" y="75" font-family="Arial, sans-serif" font-size="14" text-anchor="middle" fill="#e74c3c">~</text>

    <!-- Top rail -->
    <line x1="30" y1="45" x2="30" y2="20" stroke="#2c3e50" stroke-width="3"/>
    <line x1="30" y1="20" x2="320" y2="20" stroke="#2c3e50" stroke-width="3"/>

    <!-- Bottom rail -->
    <line x1="30" y1="95" x2="30" y2="180" stroke="#2c3e50" stroke-width="3"/>
    <line x1="30" y1="180" x2="320" y2="180" stroke="#2c3e50" stroke-width="3"/>

    <!-- L branch (left) -->
    <g transform="translate(150, 20)">
      <line x1="0" y1="0" x2="0" y2="30" stroke="#2c3e50" stroke-width="2.5"/>

      <!-- Inductor -->
      <path d="M 0 30 c -8 0 -8 8 0 8 c 8 0 8 8 0 8 c -8 0 -8 8 0 8 c 8 0 8 8 0 8 c -8 0 -8 8 0 8 c 8 0 8 8 0 8"
            fill="none" stroke="#3498db" stroke-width="3"/>
      <text x="20" y="70" font-family="Arial, sans-serif" font-size="16" font-weight="bold" text-anchor="start" fill="#3498db">L</text>

      <line x1="0" y1="110" x2="0" y2="160" stroke="#2c3e50" stroke-width="2.5"/>

      <text x="-20" y="80" font-family="Arial, sans-serif" font-size="13" text-anchor="end" fill="#3498db">IL</text>
    </g>

    <!-- C branch (right) -->
    <g transform="translate(250, 20)">
      <line x1="0" y1="0" x2="0" y2="60" stroke="#2c3e50" stroke-width="2.5"/>

      <!-- Capacitor -->
      <line x1="-18" y1="60" x2="18" y2="60" stroke="#f39c12" stroke-width="3.5"/>
      <line x1="-18" y1="70" x2="18" y2="70" stroke="#f39c12" stroke-width="3.5"/>
      <text x="25" y="68" font-family="Arial, sans-serif" font-size="16" font-weight="bold" text-anchor="start" fill="#f39c12">C</text>

      <line x1="0" y1="70" x2="0" y2="160" stroke="#2c3e50" stroke-width="2.5"/>

      <text x="-20" y="80" font-family="Arial, sans-serif" font-size="13" text-anchor="end" fill="#f39c12">IC</text>
    </g>

    <!-- Total current (very small at resonance) - VERDUIDELIJKT -->
    <text x="5" y="75" font-family="Arial, sans-serif" font-size="14" font-weight="bold" text-anchor="end" fill="#e74c3c">I ≈ 0</text>
    <text x="5" y="90" font-family="Arial, sans-serif" font-size="10" text-anchor="end" fill="#7f8c8d">(minimaal)</text>
  </g>

  <!-- Impedance vs frequency graph -->
  <g transform="translate(100, 310)">
    <text x="200" y="-15" font-family="Arial, sans-serif" font-size="14" font-weight="bold" text-anchor="middle" fill="#2c3e50">Impedantie |Z| vs Frequentie</text>

    <!-- Axes -->
    <line x1="0" y1="80" x2="400" y2="80" stroke="#95a5a6" stroke-width="1.5"/>
    <line x1="200" y1="0" x2="200" y2="85" stroke="#95a5a6" stroke-width="1.5"/>

    <!-- Labels -->
    <text x="390" y="95" font-family="Arial, sans-serif" font-size="12" fill="#7f8c8d">f →</text>
    <text x="180" y="15" font-family="Arial, sans-serif" font-size="12" fill="#7f8c8d">|Z|</text>

    <!-- Resonance curve (inverted V - maximum at f0) -->
    <path d="M 40 70 L 200 5 L 360 70" fill="none" stroke="#e74c3c" stroke-width="3"/>

    <!-- f0 marker -->
    <line x1="200" y1="5" x2="200" y2="80" stroke="#27ae60" stroke-width="2" stroke-dasharray="4,4"/>
    <text x="200" y="100" font-family="Arial, sans-serif" font-size="13" font-weight="bold" text-anchor="middle" fill="#27ae60">f₀</text>

    <!-- Z = MAX at resonance -->
    <circle cx="200" cy="5" r="4" fill="#e74c3c"/>
    <text x="215" y="10" font-family="Arial, sans-serif" font-size="12" fill="#e74c3c">Z = MAX!</text>
  </g>

  <!-- Info box -->
  <g transform="translate(430, 110)">
    <rect x="0" y="0" width="150" height="160" fill="#ecf0f1" stroke="#95a5a6" stroke-width="2" rx="5"/>
    <text x="75" y="22" font-family="Arial, sans-serif" font-size="14" font-weight="bold" text-anchor="middle" fill="#2c3e50">Bij f₀:</text>

    <text x="10" y="45" font-family="Arial, sans-serif" font-size="13" fill="#27ae60">• XL = XC</text>
    <text x="10" y="65" font-family="Arial, sans-serif" font-size="13" fill="#e74c3c">• Z = MAX</text>
    <text x="10" y="85" font-family="Arial, sans-serif" font-size="13" fill="#3498db">• I = MIN</text>
    <text x="10" y="105" font-family="Arial, sans-serif" font-size="13" fill="#f39c12">• IL = IC (groot!)</text>
    <text x="10" y="125" font-family="Arial, sans-serif" font-size="13" fill="#7f8c8d">• Energie pendelt</text>
    <text x="10" y="145" font-family="Arial, sans-serif" font-size="13" fill="#7f8c8d">  tussen L en C</text>
  </g>

  <!-- Formula -->
  <text x="300" y="75" font-family="Arial, sans-serif" font-size="15" text-anchor="middle" fill="#2c3e50">f₀ = 1 / (2π√LC)</text>
</svg>
