<svg xmlns="http://www.w3.org/2000/svg" viewBox="0 0 500 360">
  <!-- Background -->
  <rect width="500" height="360" fill="white"/>

  <!-- Title -->
  <text x="250" y="25" font-family="Arial, sans-serif" font-size="18" font-weight="bold" text-anchor="middle" fill="#333">Serie RLC Resonantie</text>

  <!-- Circuit -->
  <g transform="translate(80, 100)">
    <!-- AC voltage source -->
    <circle cx="30" cy="80" r="25" fill="none" stroke="#e74c3c" stroke-width="2"/>
    <text x="30" y="85" font-family="Arial, sans-serif" font-size="12" text-anchor="middle" fill="#e74c3c">~</text>
    <text x="30" y="115" font-family="Arial, sans-serif" font-size="11" text-anchor="middle" fill="#e74c3c">U</text>

    <!-- Top wire -->
    <line x1="30" y1="55" x2="30" y2="30" stroke="#2c3e50" stroke-width="2.5"/>
    <line x1="30" y1="30" x2="100" y2="30" stroke="#2c3e50" stroke-width="2.5"/>

    <!-- Resistor R -->
    <path d="M 100 30 l 10 -8 l 10 16 l 10 -16 l 10 16 l 10 -16 l 10 16 l 10 -8"
          fill="none" stroke="#2c3e50" stroke-width="2.5"/>
    <text x="125" y="20" font-family="Arial, sans-serif" font-size="13" text-anchor="middle" fill="#2c3e50">R</text>

    <!-- Wire to L -->
    <line x1="170" y1="30" x2="210" y2="30" stroke="#2c3e50" stroke-width="2.5"/>

    <!-- Inductor L (coil) -->
    <path d="M 210 30 c 0 -8 8 -8 8 0 c 0 8 8 8 8 0 c 0 -8 8 -8 8 0 c 0 8 8 8 8 0 c 0 -8 8 -8 8 0"
          fill="none" stroke="#3498db" stroke-width="2.5"/>
    <text x="234" y="20" font-family="Arial, sans-serif" font-size="13" text-anchor="middle" fill="#3498db">L</text>

    <!-- Wire to C -->
    <line x1="250" y1="30" x2="290" y2="30" stroke="#2c3e50" stroke-width="2.5"/>

    <!-- Capacitor C -->
    <line x1="290" y1="20" x2="290" y2="40" stroke="#f39c12" stroke-width="3"/>
    <line x1="300" y1="20" x2="300" y2="40" stroke="#f39c12" stroke-width="3"/>
    <line x1="290" y1="30" x2="280" y2="30" stroke="#2c3e50" stroke-width="2.5"/>
    <line x1="300" y1="30" x2="310" y2="30" stroke="#2c3e50" stroke-width="2.5"/>
    <text x="295" y="18" font-family="Arial, sans-serif" font-size="13" text-anchor="middle" fill="#f39c12">C</text>

    <!-- Right side -->
    <line x1="310" y1="30" x2="340" y2="30" stroke="#2c3e50" stroke-width="2.5"/>
    <line x1="340" y1="30" x2="340" y2="130" stroke="#2c3e50" stroke-width="2.5"/>

    <!-- Bottom wire -->
    <line x1="340" y1="130" x2="30" y2="130" stroke="#2c3e50" stroke-width="2.5"/>
    <line x1="30" y1="130" x2="30" y2="105" stroke="#2c3e50" stroke-width="2.5"/>

    <!-- Current arrow -->
    <text x="180" y="55" font-family="Arial, sans-serif" font-size="12" fill="#e74c3c">I</text>
  </g>

  <!-- Resonance graph (impedance vs frequency) -->
  <g transform="translate(240, 210)">
    <text x="100" y="-25" font-family="Arial, sans-serif" font-size="12" font-weight="bold" text-anchor="middle" fill="#2c3e50">Impedantie Z vs Frequentie</text>

    <!-- Axes -->
    <line x1="0" y1="80" x2="200" y2="80" stroke="#95a5a6" stroke-width="1.5"/>
    <line x1="100" y1="0" x2="100" y2="85" stroke="#95a5a6" stroke-width="1.5"/>

    <!-- Labels -->
    <text x="200" y="95" font-family="Arial, sans-serif" font-size="10" fill="#7f8c8d">f</text>
    <text x="85" y="10" font-family="Arial, sans-serif" font-size="10" fill="#7f8c8d">Z</text>

    <!-- Resonance curve (V-shape) -->
    <path d="M 20 10 L 100 75 L 180 10" fill="none" stroke="#e74c3c" stroke-width="2.5"/>

    <!-- f0 marker -->
    <line x1="100" y1="75" x2="100" y2="80" stroke="#27ae60" stroke-width="2"/>
    <text x="100" y="95" font-family="Arial, sans-serif" font-size="10" font-weight="bold" text-anchor="middle" fill="#27ae60">f₀</text>

    <!-- Z = R at resonance -->
    <circle cx="100" cy="75" r="3" fill="#e74c3c"/>
    <text x="115" y="75" font-family="Arial, sans-serif" font-size="9" fill="#e74c3c">Z=R (min)</text>
  </g>

  <!-- Info box -->
  <g transform="translate(20, 220)">
    <rect x="0" y="0" width="200" height="120" fill="#ecf0f1" stroke="#95a5a6" stroke-width="1" rx="5"/>
    <text x="100" y="20" font-family="Arial, sans-serif" font-size="13" font-weight="bold" text-anchor="middle" fill="#2c3e50">Bij Resonantie (f₀):</text>

    <text x="10" y="40" font-family="Arial, sans-serif" font-size="11" fill="#27ae60">• XL = XC → heffen elkaar op</text>
    <text x="10" y="56" font-family="Arial, sans-serif" font-size="11" fill="#e74c3c">• Z = R (minimaal!)</text>
    <text x="10" y="72" font-family="Arial, sans-serif" font-size="11" fill="#3498db">• I = maximaal (= U/R)</text>
    <text x="10" y="88" font-family="Arial, sans-serif" font-size="11" fill="#f39c12">• UC en UL zeer hoog!</text>
    <text x="10" y="104" font-family="Arial, sans-serif" font-size="11" fill="#7f8c8d">• cos φ = 1 (zuiver ohmisch)</text>
  </g>

  <!-- Formulas -->
  <g transform="translate(260, 60)">
    <rect x="0" y="0" width="220" height="90" fill="#fff9e6" stroke="#f39c12" stroke-width="1" rx="5"/>
    <text x="110" y="18" font-family="Arial, sans-serif" font-size="12" font-weight="bold" text-anchor="middle" fill="#f39c12">Resonantiefrequentie:</text>

    <text x="110" y="40" font-family="Arial, sans-serif" font-size="13" text-anchor="middle" fill="#2c3e50">f₀ = 1 / (2π√LC)</text>
    <text x="110" y="60" font-family="Arial, sans-serif" font-size="11" text-anchor="middle" fill="#7f8c8d">of: ω₀ = 1/√LC</text>
    <text x="110" y="80" font-family="Arial, sans-serif" font-size="11" text-anchor="middle" fill="#e74c3c">Q = XL/R = (1/R)√(L/C)</text>
  </g>

  <!-- Bottom annotation -->
  <text x="250" y="355" font-family="Arial, sans-serif" font-size="11" text-anchor="middle" fill="#7f8c8d" font-style="italic">Hoogspanningen over L en C bij resonantie → gevaar voor doorslag!</text>
</svg>
