<?xml version="1.0" encoding="UTF-8"?>
<svg width="700" height="500" xmlns="http://www.w3.org/2000/svg">
  <rect width="700" height="500" fill="white"/>

  <!-- Title -->
  <text x="350" y="30" font-size="18" font-weight="bold" text-anchor="middle">Stroom i(t) en Spanning u(t) bij Condensator</text>

  <!-- Current graph -->
  <g>
    <text x="50" y="100" font-size="16" font-weight="bold">Stroom i(t):</text>

    <!-- Axes -->
    <line x1="100" y1="180" x2="650" y2="180" stroke="black" stroke-width="2"/>
    <line x1="100" y1="90" x2="100" y2="270" stroke="black" stroke-width="2"/>

    <!-- Current waveform (square wave) -->
    <path d="M 100,180 L 100,120 L 237,120 L 237,240 L 375,240 L 375,120 L 512,120 L 512,240 L 650,240"
          stroke="#F44336" stroke-width="3" fill="none"/>

    <!-- Labels -->
    <text x="30" y="125" font-size="14">+1mA</text>
    <text x="30" y="245" font-size="14">-1mA</text>
    <text x="655" y="185" font-size="14">t</text>

    <!-- Time markers -->
    <text x="165" y="200" font-size="12">4s</text>
    <text x="300" y="200" font-size="12">8s</text>
    <line x1="237" y1="270" x2="237" y2="275" stroke="black" stroke-width="1"/>
    <line x1="375" y1="270" x2="375" y2="275" stroke="black" stroke-width="1"/>
  </g>

  <!-- Voltage graph -->
  <g>
    <text x="50" y="320" font-size="16" font-weight="bold">Spanning u(t):</text>

    <!-- Axes -->
    <line x1="100" y1="400" x2="650" y2="400" stroke="black" stroke-width="2"/>
    <line x1="100" y1="310" x2="100" y2="490" stroke="black" stroke-width="2"/>

    <!-- Voltage waveform (sawtooth/triangular) -->
    <path d="M 100,400 L 237,310 L 375,490 L 512,310 L 650,490"
          stroke="#2196F3" stroke-width="3" fill="none"/>

    <!-- Labels -->
    <text x="30" y="315" font-size="14">U_max</text>
    <text x="30" y="495" font-size="14">U_min</text>
    <text x="655" y="405" font-size="14">t</text>

    <!-- Time markers -->
    <text x="165" y="420" font-size="12">4s</text>
    <text x="300" y="420" font-size="12">8s</text>
    <line x1="237" y1="490" x2="237" y2="495" stroke="black" stroke-width="1"/>
    <line x1="375" y1="490" x2="375" y2="495" stroke="black" stroke-width="1"/>

    <!-- Zero line -->
    <line x1="100" y1="400" x2="650" y2="400" stroke="gray" stroke-width="1" stroke-dasharray="3,3"/>
  </g>

  <!-- Formula -->
  <text x="350" y="40" font-size="14" text-anchor="middle" fill="#666">
    i(t) = C · du/dt  →  u(t) = (1/C) · ∫i(t)dt
  </text>
</svg>